<svg width="86" height="15" viewBox="0 0 86 15" fill="none" xmlns="http://www.w3.org/2000/svg">
<path d="M4.11401 14.479C3.45667 14.479 2.85601 14.3033 2.31201 13.952C1.76801 13.612 1.33734 13.1247 1.02001 12.49C0.702673 11.8553 0.544006 11.096 0.544006 10.212C0.544006 9.33934 0.680006 8.46101 0.952006 7.57701C1.22401 6.68168 1.59801 5.83168 2.07401 5.02701C2.55001 4.21101 3.10534 3.48568 3.74001 2.85101C4.37467 2.20501 5.04901 1.70068 5.76301 1.33801C6.48834 0.964009 7.23067 0.77701 7.99001 0.77701C8.10334 0.77701 8.26767 0.799676 8.48301 0.84501C8.70967 0.890343 8.93067 1.02634 9.14601 1.25301C9.07801 1.24168 8.99867 1.23601 8.90801 1.23601C8.82867 1.22468 8.74367 1.21901 8.65301 1.21901C8.06367 1.21901 7.46867 1.40601 6.86801 1.78001C6.26734 2.14268 5.69501 2.63568 5.15101 3.25901C4.60701 3.88234 4.11967 4.59068 3.68901 5.38401C3.26967 6.16601 2.93534 6.98201 2.68601 7.83201C2.43667 8.68201 2.31201 9.50934 2.31201 10.314C2.31201 10.9033 2.39134 11.453 2.55001 11.963C2.70867 12.473 2.96367 12.881 3.31501 13.187C3.66634 13.5043 4.13101 13.663 4.70901 13.663C5.33234 13.663 5.91601 13.476 6.46001 13.102C7.00401 12.728 7.49701 12.2293 7.93901 11.606C8.38101 10.9713 8.76067 10.2687 9.07801 9.49801C9.39534 8.71601 9.63901 7.91701 9.80901 7.10101C9.97901 6.27368 10.064 5.48601 10.064 4.73801C10.064 4.40934 10.0413 4.05801 9.99601 3.68401C9.95067 3.29868 9.87134 2.97001 9.75801 2.69801C9.65601 2.42601 9.50301 2.29001 9.29901 2.29001C9.10634 2.29001 8.89667 2.41468 8.67001 2.66401C8.44334 2.90201 8.22234 3.20801 8.00701 3.58201C7.79167 3.95601 7.59901 4.35268 7.42901 4.77201C7.27034 5.18001 7.15701 5.54834 7.08901 5.87701C6.70367 5.79768 6.42601 5.67301 6.25601 5.50301C6.09734 5.33301 6.01801 5.12901 6.01801 4.89101C6.01801 4.58501 6.12567 4.24501 6.34101 3.87101C6.55634 3.49701 6.83401 3.14001 7.17401 2.80001C7.52534 2.44868 7.88801 2.15968 8.26201 1.93301C8.64734 1.70634 9.00434 1.59301 9.33301 1.59301C9.67301 1.59301 9.94501 1.71768 10.149 1.96701C10.3643 2.20501 10.5287 2.51668 10.642 2.90201C10.7553 3.28734 10.8347 3.70101 10.88 4.14301C10.9253 4.57368 10.948 4.97601 10.948 5.35001C10.948 6.50601 10.8063 7.56568 10.523 8.52901C10.2397 9.48101 9.85434 10.3253 9.36701 11.062C8.89101 11.7987 8.35267 12.422 7.75201 12.932C7.16267 13.442 6.55067 13.8273 5.91601 14.088C5.29267 14.3487 4.69201 14.479 4.11401 14.479Z" fill="url(#paint0_linear_265_33)"/>
<path d="M14.0854 13.442C13.6661 13.442 13.3261 13.3287 13.0654 13.102C12.8048 12.8867 12.6744 12.592 12.6744 12.218C12.6744 11.9007 12.7538 11.5607 12.9124 11.198C13.0711 10.8353 13.2298 10.4783 13.3884 10.127C13.5584 9.77568 13.6434 9.46401 13.6434 9.19201C13.6434 8.93134 13.5584 8.71601 13.3884 8.54601C13.2184 8.36468 13.0201 8.21734 12.7934 8.10401C12.5441 8.72734 12.2608 9.33368 11.9434 9.92301C11.6374 10.501 11.3881 10.9543 11.1954 11.283L10.9404 10.79C11.0991 10.4953 11.3088 10.076 11.5694 9.53201C11.8301 8.98801 12.0794 8.38168 12.3174 7.71301C12.2041 7.59968 12.1474 7.44668 12.1474 7.25401C12.1474 6.95934 12.2381 6.68168 12.4194 6.42101C12.6008 6.16034 12.7764 6.03001 12.9464 6.03001C13.0824 6.03001 13.1788 6.10934 13.2354 6.26801C13.3034 6.41534 13.3374 6.51734 13.3374 6.57401C13.3374 6.63068 13.3091 6.73268 13.2524 6.88001C13.2071 7.02734 13.1731 7.13501 13.1504 7.20301C13.1618 7.32768 13.2581 7.45234 13.4394 7.57701C13.6321 7.69034 13.8474 7.82634 14.0854 7.98501C14.3234 8.14368 14.5331 8.34201 14.7144 8.58001C14.8958 8.81801 14.9864 9.11834 14.9864 9.48101C14.9864 9.80968 14.9128 10.144 14.7654 10.484C14.6181 10.824 14.4708 11.1413 14.3234 11.436C14.1761 11.7307 14.1024 11.9857 14.1024 12.201C14.1024 12.3597 14.1421 12.4673 14.2214 12.524C14.3121 12.5693 14.4141 12.592 14.5274 12.592C14.7994 12.592 15.0828 12.5127 15.3774 12.354C15.6721 12.184 15.9611 11.9687 16.2444 11.708C16.5278 11.4473 16.7771 11.1753 16.9924 10.892C17.2078 10.5973 17.3721 10.331 17.4854 10.093L17.8934 10.399C17.6781 10.8863 17.3664 11.368 16.9584 11.844C16.5504 12.3087 16.0971 12.694 15.5984 13C15.0998 13.2947 14.5954 13.442 14.0854 13.442Z" fill="url(#paint1_linear_265_33)"/>
<path d="M18.0682 13.799C17.6942 13.799 17.3712 13.6743 17.0992 13.425C16.8159 13.1757 16.6742 12.8017 16.6742 12.303C16.6742 11.9063 16.7649 11.4757 16.9462 11.011C17.1275 10.5463 17.3769 10.0873 17.6942 9.63401C18.0116 9.18068 18.3742 8.77268 18.7822 8.41001C19.1902 8.03601 19.6266 7.73568 20.0912 7.50901C20.5559 7.28234 21.0206 7.16901 21.4852 7.16901C21.9726 7.16901 22.3862 7.29368 22.7262 7.54301C23.0662 7.79234 23.2362 8.12101 23.2362 8.52901C23.2362 8.83501 23.1286 9.05601 22.9132 9.19201C22.6979 9.32801 22.4429 9.36768 22.1482 9.31101C22.1709 9.20901 22.1879 9.10701 22.1992 9.00501C22.2219 8.90301 22.2332 8.79534 22.2332 8.68201C22.2332 8.45534 22.1879 8.25134 22.0972 8.07001C22.0066 7.88868 21.8139 7.79801 21.5192 7.79801C21.2019 7.79801 20.8789 7.90568 20.5502 8.12101C20.2216 8.33634 19.9042 8.61968 19.5982 8.97101C19.3036 9.31101 19.0372 9.69068 18.7992 10.11C18.5612 10.518 18.3742 10.9203 18.2382 11.317C18.1022 11.7137 18.0342 12.0707 18.0342 12.388C18.0342 12.7507 18.1645 12.932 18.4252 12.932C18.6859 12.932 18.9749 12.8073 19.2922 12.558C19.6096 12.2973 19.9269 11.9743 20.2442 11.589C20.5729 11.2037 20.8846 10.8127 21.1792 10.416C21.4739 10.008 21.7289 9.66234 21.9442 9.37901C21.9782 9.32234 22.0236 9.29401 22.0802 9.29401C22.1256 9.30534 22.2105 9.33368 22.3352 9.37901C22.4712 9.41301 22.5959 9.46968 22.7092 9.54901C22.8226 9.62834 22.8792 9.73034 22.8792 9.85501C22.8792 9.96834 22.8282 10.1157 22.7262 10.297C22.6356 10.467 22.5222 10.6597 22.3862 10.875C22.2616 11.079 22.1482 11.2887 22.0462 11.504C21.9556 11.708 21.9102 11.9063 21.9102 12.099C21.9102 12.2463 21.9499 12.388 22.0292 12.524C22.1086 12.6487 22.2389 12.711 22.4202 12.711C22.6922 12.711 23.0719 12.5127 23.5592 12.116C24.0579 11.708 24.5622 11.0223 25.0722 10.059L25.3952 10.382C25.1232 10.994 24.7946 11.538 24.4092 12.014C24.0352 12.4787 23.6386 12.8413 23.2192 13.102C22.7999 13.374 22.3749 13.51 21.9442 13.51C21.4796 13.51 21.1339 13.3627 20.9072 13.068C20.6806 12.7733 20.5559 12.456 20.5332 12.116C20.5332 12.0933 20.5332 12.0763 20.5332 12.065C20.5332 12.0537 20.5332 12.0423 20.5332 12.031C20.0799 12.575 19.6606 13.0057 19.2752 13.323C18.9012 13.6403 18.4989 13.799 18.0682 13.799Z" fill="url(#paint2_linear_265_33)"/>
<path d="M26.5909 13.952C26.0016 13.952 25.5143 13.765 25.1289 13.391C24.7549 13.0283 24.5679 12.4673 24.5679 11.708C24.5679 11.1527 24.6756 10.6087 24.8909 10.076C25.1063 9.54334 25.3953 9.06734 25.7579 8.64801C26.1206 8.21734 26.5229 7.87734 26.9649 7.62801C27.4183 7.37868 27.8773 7.25401 28.3419 7.25401C28.8179 7.25401 29.1579 7.37301 29.3619 7.61101C29.5773 7.84901 29.6849 8.12668 29.6849 8.44401C29.6849 8.76134 29.6056 9.07301 29.4469 9.37901C29.2996 9.67368 29.0956 9.82101 28.8349 9.82101C28.6196 9.82101 28.4439 9.71334 28.3079 9.49801C28.4213 9.41868 28.5403 9.27134 28.6649 9.05601C28.7896 8.84068 28.8519 8.56301 28.8519 8.22301C28.8519 8.13234 28.8293 8.06434 28.7839 8.01901C28.7386 7.96234 28.6536 7.93401 28.5289 7.93401C28.2456 7.93401 27.9453 8.06434 27.6279 8.32501C27.3219 8.57434 27.0329 8.90301 26.7609 9.31101C26.5003 9.70768 26.2849 10.1327 26.1149 10.586C25.9563 11.028 25.8769 11.436 25.8769 11.81C25.8769 12.1273 25.9563 12.422 26.1149 12.694C26.2849 12.9547 26.6079 13.085 27.0839 13.085C27.5146 13.085 27.9623 12.9603 28.4269 12.711C28.8916 12.4617 29.3279 12.116 29.7359 11.674C30.1439 11.2207 30.4726 10.6823 30.7219 10.059L31.0619 10.365C30.7899 11.0563 30.4103 11.674 29.9229 12.218C29.4469 12.7507 28.9143 13.17 28.3249 13.476C27.7469 13.7933 27.1689 13.952 26.5909 13.952Z" fill="url(#paint3_linear_265_33)"/>
<path d="M31.8781 13.782C31.3794 13.782 30.9771 13.6347 30.6711 13.34C30.3651 13.0453 30.2121 12.5977 30.2121 11.997C30.2121 11.5323 30.2971 10.9543 30.4671 10.263C30.6484 9.57168 30.8751 8.85768 31.1471 8.12101C31.0677 8.09834 30.9714 8.08134 30.8581 8.07001C30.7561 8.04734 30.6541 8.01334 30.5521 7.96801V7.44101C30.7334 7.46368 30.8807 7.48068 30.9941 7.49201C31.1187 7.50334 31.2434 7.51468 31.3681 7.52601C31.6061 6.92534 31.8611 6.34734 32.1331 5.79201C32.4164 5.22534 32.6941 4.72101 32.9661 4.27901C33.2494 3.83701 33.5157 3.49134 33.7651 3.24201C34.0144 2.98134 34.2354 2.85101 34.4281 2.85101C34.5414 2.85101 34.6491 2.89634 34.7511 2.98701C34.8531 3.06634 34.9041 3.18534 34.9041 3.34401C34.9041 3.57068 34.7851 3.89368 34.5471 4.31301C34.3204 4.73234 34.0371 5.22534 33.6971 5.79201C33.3571 6.34734 33.0284 6.94234 32.7111 7.57701C32.8017 7.57701 32.8924 7.57701 32.9831 7.57701C33.0737 7.57701 33.1587 7.57701 33.2381 7.57701C33.7367 7.57701 34.1844 7.57134 34.5811 7.56001C34.9891 7.53734 35.4027 7.50334 35.8221 7.45801V8.01901C35.1987 8.07568 34.6264 8.12101 34.1051 8.15501C33.5837 8.18901 33.0851 8.21168 32.6091 8.22301C32.5751 8.22301 32.5411 8.22301 32.5071 8.22301C32.4731 8.22301 32.4391 8.22301 32.4051 8.22301C32.1671 8.77834 31.9574 9.35068 31.7761 9.94001C31.6061 10.518 31.5211 11.0847 31.5211 11.64C31.5211 12.1047 31.5947 12.4333 31.7421 12.626C31.8894 12.8187 32.1217 12.915 32.4391 12.915C33.0057 12.915 33.5837 12.66 34.1731 12.15C34.7737 11.6287 35.2951 10.926 35.7371 10.042L35.9751 10.212C35.6804 10.8807 35.3121 11.487 34.8701 12.031C34.4394 12.575 33.9691 13 33.4591 13.306C32.9491 13.6233 32.4221 13.782 31.8781 13.782Z" fill="url(#paint4_linear_265_33)"/>
<path d="M36.5885 13.51C36.0899 13.51 35.7159 13.3627 35.4665 13.068C35.2172 12.7733 35.0925 12.4163 35.0925 11.997C35.0925 11.7363 35.1379 11.4077 35.2285 11.011C35.3192 10.6143 35.4439 10.2007 35.6025 9.77001C35.7725 9.32801 35.9652 8.91434 36.1805 8.52901C36.3959 8.14368 36.6282 7.83201 36.8775 7.59401C37.1269 7.34468 37.3762 7.22001 37.6255 7.22001C37.7615 7.22001 37.8805 7.26534 37.9825 7.35601C38.0845 7.43534 38.1355 7.55434 38.1355 7.71301C38.1355 7.86034 38.0449 8.08134 37.8635 8.37601C37.6935 8.67068 37.4895 9.01068 37.2515 9.39601C37.0249 9.78134 36.8209 10.1837 36.6395 10.603C36.4695 11.011 36.3845 11.402 36.3845 11.776C36.3845 12.1387 36.4469 12.3823 36.5715 12.507C36.7075 12.6203 36.9002 12.677 37.1495 12.677C37.5349 12.677 37.9542 12.4843 38.4075 12.099C38.8609 11.7137 39.3312 11.0393 39.8185 10.076L40.0735 10.348C39.6769 11.3453 39.1725 12.1217 38.5605 12.677C37.9485 13.2323 37.2912 13.51 36.5885 13.51ZM38.5945 5.84301C38.3792 5.84301 38.1809 5.79201 37.9995 5.69001C37.8295 5.57668 37.7445 5.40668 37.7445 5.18001C37.7445 4.90801 37.8919 4.67568 38.1865 4.48301C38.4812 4.29034 38.7872 4.19401 39.1045 4.19401C39.3085 4.19401 39.4785 4.23934 39.6145 4.33001C39.7619 4.42068 39.8355 4.58501 39.8355 4.82301C39.8355 5.06101 39.7052 5.29334 39.4445 5.52001C39.1839 5.73534 38.9005 5.84301 38.5945 5.84301Z" fill="url(#paint5_linear_265_33)"/>
<path d="M41.3679 13.867C40.8012 13.867 40.3422 13.748 39.9909 13.51C39.6509 13.2833 39.4072 12.9943 39.2599 12.643C39.1126 12.2803 39.0389 11.912 39.0389 11.538C39.0389 11.2093 39.0842 10.9543 39.1749 10.773C39.2656 10.5917 39.3789 10.4613 39.5149 10.382C39.6509 10.2913 39.7756 10.2233 39.8889 10.178C40.0136 10.1327 40.1042 10.0817 40.1609 10.025C40.4442 9.73034 40.7332 9.39034 41.0279 9.00501C41.3339 8.60834 41.5946 8.17201 41.8099 7.69601V7.52601C41.8099 7.07268 41.8836 6.75534 42.0309 6.57401C42.1896 6.38134 42.3709 6.28501 42.5749 6.28501C42.7109 6.28501 42.8072 6.31901 42.8639 6.38701C42.9319 6.45501 42.9716 6.53434 42.9829 6.62501C42.9829 6.69301 42.9659 6.77234 42.9319 6.86301C42.9092 6.95368 42.8979 7.07834 42.8979 7.23701C42.8979 7.57701 42.9772 7.96801 43.1359 8.41001C43.3059 8.84068 43.4702 9.29968 43.6289 9.78701C43.7989 10.2743 43.8839 10.773 43.8839 11.283C43.8839 11.419 43.8782 11.5437 43.8669 11.657C43.8556 11.7703 43.8386 11.878 43.8159 11.98C44.1672 11.8893 44.5129 11.6967 44.8529 11.402C45.1929 11.096 45.5159 10.6483 45.8219 10.059L46.0259 10.212C45.8106 10.858 45.4989 11.3793 45.0909 11.776C44.6829 12.1613 44.2069 12.3993 43.6629 12.49C43.4816 12.9547 43.1812 13.3003 42.7619 13.527C42.3539 13.7537 41.8892 13.867 41.3679 13.867ZM41.2489 13.119C41.4756 13.119 41.6852 13.0623 41.8779 12.949C42.0706 12.8357 42.2236 12.6713 42.3369 12.456C41.8722 12.354 41.4529 12.1727 41.0789 11.912C40.7049 11.6513 40.4159 11.385 40.2119 11.113C40.0532 11.147 39.9739 11.3 39.9739 11.572C39.9739 11.946 40.0816 12.2973 40.2969 12.626C40.5122 12.9547 40.8296 13.119 41.2489 13.119ZM42.4729 11.946C42.4956 11.8667 42.5069 11.776 42.5069 11.674C42.5182 11.5607 42.5239 11.4757 42.5239 11.419C42.5126 10.909 42.4446 10.4047 42.3199 9.90601C42.1952 9.40734 42.0706 8.89734 41.9459 8.37601C41.7419 8.72734 41.5039 9.10701 41.2319 9.51501C40.9599 9.92301 40.7049 10.2517 40.4669 10.501C40.6482 10.807 40.9146 11.096 41.2659 11.368C41.6172 11.64 42.0196 11.8327 42.4729 11.946Z" fill="url(#paint6_linear_265_33)"/>
<path d="M53.9369 14.479C53.8236 14.479 53.6762 14.462 53.4949 14.428C53.3136 14.394 53.1266 14.326 52.9339 14.224C52.7526 14.1333 52.5996 13.986 52.4749 13.782C52.3502 13.578 52.2879 13.306 52.2879 12.966C52.2879 12.6827 52.3446 12.3143 52.4579 11.861C52.5712 11.3963 52.7639 10.722 53.0359 9.83801C53.2399 9.16934 53.4382 8.51201 53.6309 7.86601C53.8349 7.20868 53.9992 6.52868 54.1239 5.82601C54.2599 5.12334 54.3279 4.37534 54.3279 3.58201C54.3279 3.11734 54.2996 2.72634 54.2429 2.40901C54.1862 2.09168 54.0786 1.85368 53.9199 1.69501C53.7726 1.52501 53.5629 1.44001 53.2909 1.44001C53.0189 1.44001 52.7809 1.51368 52.5769 1.66101C52.3729 1.80834 52.2029 2.00668 52.0669 2.25601C51.9309 2.49401 51.8289 2.76034 51.7609 3.05501C51.6929 3.34968 51.6589 3.64434 51.6589 3.93901C51.6589 4.43768 51.7439 4.85134 51.9139 5.18001C51.3586 5.18001 50.9562 5.04968 50.7069 4.78901C50.4576 4.52834 50.3329 4.20534 50.3329 3.82001C50.3329 3.48001 50.4179 3.12868 50.5879 2.76601C50.7579 2.40334 50.9902 2.07468 51.2849 1.78001C51.5909 1.47401 51.9422 1.23034 52.3389 1.04901C52.7356 0.856343 53.1606 0.76001 53.6139 0.76001C54.3846 0.76001 54.9682 1.04334 55.3649 1.61001C55.7729 2.17668 55.9769 2.98134 55.9769 4.02401C55.9769 4.80601 55.8692 5.62201 55.6539 6.47201C55.4499 7.31068 55.1892 8.22868 54.8719 9.22601C54.7586 9.58868 54.6226 9.99101 54.4639 10.433C54.3166 10.8637 54.1806 11.3113 54.0559 11.776C53.9426 12.2293 53.8859 12.6827 53.8859 13.136C53.8859 13.3513 53.9086 13.4987 53.9539 13.578C54.0106 13.6687 54.1126 13.714 54.2599 13.714C54.5659 13.714 54.8889 13.5837 55.2289 13.323C55.5802 13.0623 55.9316 12.711 56.2829 12.269C56.6342 11.827 56.9686 11.334 57.2859 10.79C57.6146 10.246 57.9149 9.69068 58.1869 9.12401C58.4589 8.54601 58.6856 8.00201 58.8669 7.49201C59.0482 6.97068 59.1672 6.51734 59.2239 6.13201C59.6546 6.13201 59.9889 6.25101 60.2269 6.48901C60.4649 6.72701 60.5839 6.95368 60.5839 7.16901C60.5839 7.28234 60.5329 7.47501 60.4309 7.74701C60.3402 8.01901 60.1816 8.42134 59.9549 8.95401C59.7736 9.38468 59.5866 9.84368 59.3939 10.331C59.2012 10.807 59.0369 11.283 58.9009 11.759C58.7762 12.2237 58.7139 12.66 58.7139 13.068C58.7139 13.2947 58.7422 13.459 58.7989 13.561C58.8669 13.663 58.9859 13.714 59.1559 13.714C59.4732 13.714 59.8359 13.5553 60.2439 13.238C60.6632 12.932 61.0939 12.5127 61.5359 11.98C61.9779 11.436 62.4086 10.8297 62.8279 10.161C63.2472 9.48101 63.6269 8.77834 63.9669 8.05301C64.3069 7.32768 64.5732 6.61368 64.7659 5.91101C64.9699 5.20834 65.0719 4.56801 65.0719 3.99001C65.0719 3.36668 64.9586 2.92468 64.7319 2.66401C64.5166 2.40334 64.2446 2.21634 63.9159 2.10301C64.1199 1.77434 64.3352 1.53634 64.5619 1.38901C64.7999 1.23034 65.0096 1.15101 65.1909 1.15101C65.4516 1.15101 65.7179 1.32101 65.9899 1.66101C66.2732 1.98968 66.4149 2.51101 66.4149 3.22501C66.4149 3.82568 66.2959 4.51701 66.0579 5.29901C65.8312 6.08101 65.5139 6.89701 65.1059 7.74701C64.7092 8.58568 64.2502 9.40734 63.7289 10.212C63.2189 11.0053 62.6692 11.725 62.0799 12.371C61.5019 13.017 60.9182 13.527 60.3289 13.901C59.7396 14.2863 59.1786 14.479 58.6459 14.479C58.3512 14.479 58.0849 14.4167 57.8469 14.292C57.6202 14.1787 57.4389 14.0087 57.3029 13.782C57.1782 13.5667 57.1159 13.3117 57.1159 13.017C57.1159 12.881 57.1329 12.7393 57.1669 12.592C57.2009 12.4447 57.2406 12.2973 57.2859 12.15C56.7306 12.8527 56.1696 13.4137 55.6029 13.833C55.0476 14.2637 54.4922 14.479 53.9369 14.479Z" fill="url(#paint7_linear_265_33)"/>
<path d="M67.5316 13.748C66.8062 13.748 66.2452 13.5497 65.8486 13.153C65.4632 12.7677 65.2706 12.2803 65.2706 11.691C65.2706 11.1923 65.3952 10.6653 65.6446 10.11C65.9052 9.54334 66.2509 9.01634 66.6816 8.52901C67.1122 8.03034 67.5882 7.62801 68.1096 7.32201C68.6309 7.01601 69.1522 6.86301 69.6736 6.86301C69.9682 6.86301 70.2459 6.94234 70.5066 7.10101C70.7786 7.24834 70.9146 7.54868 70.9146 8.00201C70.9146 8.43268 70.7899 8.83501 70.5406 9.20901C70.2912 9.58301 69.9569 9.91734 69.5376 10.212C69.1182 10.5067 68.6536 10.7503 68.1436 10.943C67.6449 11.1243 67.1406 11.2433 66.6306 11.3C66.6192 11.3453 66.6079 11.3963 66.5966 11.453C66.5966 11.4983 66.5966 11.5777 66.5966 11.691C66.5966 11.7477 66.6022 11.8497 66.6136 11.997C66.6362 12.133 66.6872 12.2803 66.7666 12.439C66.8459 12.5977 66.9762 12.7337 67.1576 12.847C67.3389 12.9603 67.5882 13.017 67.9056 13.017C68.3816 13.017 68.8576 12.8867 69.3336 12.626C69.8209 12.354 70.2742 11.997 70.6936 11.555C71.1242 11.113 71.4812 10.62 71.7646 10.076L72.1046 10.348C71.7986 11.028 71.4019 11.623 70.9146 12.133C70.4386 12.643 69.9059 13.0397 69.3166 13.323C68.7386 13.6063 68.1436 13.748 67.5316 13.748ZM66.8176 10.671C67.1122 10.637 67.4409 10.535 67.8036 10.365C68.1662 10.195 68.5119 9.97968 68.8406 9.71901C69.1806 9.45834 69.4582 9.17501 69.6736 8.86901C69.8889 8.55168 69.9966 8.23434 69.9966 7.91701C69.9966 7.79234 69.9739 7.70734 69.9286 7.66201C69.8832 7.61668 69.8096 7.59401 69.7076 7.59401C69.4469 7.59401 69.1749 7.69034 68.8916 7.88301C68.6082 8.06434 68.3306 8.30801 68.0586 8.61401C67.7866 8.90868 67.5429 9.23734 67.3276 9.60001C67.1122 9.96268 66.9422 10.3197 66.8176 10.671Z" fill="url(#paint8_linear_265_33)"/>
<path d="M72.3055 13.799C71.9315 13.799 71.6085 13.6743 71.3365 13.425C71.0532 13.1757 70.9115 12.8017 70.9115 12.303C70.9115 11.9063 71.0022 11.4757 71.1835 11.011C71.3649 10.5463 71.6142 10.0873 71.9315 9.63401C72.2489 9.18068 72.6115 8.77268 73.0195 8.41001C73.4275 8.03601 73.8639 7.73568 74.3285 7.50901C74.7932 7.28234 75.2579 7.16901 75.7225 7.16901C76.2099 7.16901 76.6235 7.29368 76.9635 7.54301C77.3035 7.79234 77.4735 8.12101 77.4735 8.52901C77.4735 8.83501 77.3659 9.05601 77.1505 9.19201C76.9352 9.32801 76.6802 9.36768 76.3855 9.31101C76.4082 9.20901 76.4252 9.10701 76.4365 9.00501C76.4592 8.90301 76.4705 8.79534 76.4705 8.68201C76.4705 8.45534 76.4252 8.25134 76.3345 8.07001C76.2439 7.88868 76.0512 7.79801 75.7565 7.79801C75.4392 7.79801 75.1162 7.90568 74.7875 8.12101C74.4589 8.33634 74.1415 8.61968 73.8355 8.97101C73.5409 9.31101 73.2745 9.69068 73.0365 10.11C72.7985 10.518 72.6115 10.9203 72.4755 11.317C72.3395 11.7137 72.2715 12.0707 72.2715 12.388C72.2715 12.7507 72.4019 12.932 72.6625 12.932C72.9232 12.932 73.2122 12.8073 73.5295 12.558C73.8469 12.2973 74.1642 11.9743 74.4815 11.589C74.8102 11.2037 75.1219 10.8127 75.4165 10.416C75.7112 10.008 75.9662 9.66234 76.1815 9.37901C76.2155 9.32234 76.2609 9.29401 76.3175 9.29401C76.3629 9.30534 76.4479 9.33368 76.5725 9.37901C76.7085 9.41301 76.8332 9.46968 76.9465 9.54901C77.0599 9.62834 77.1165 9.73034 77.1165 9.85501C77.1165 9.96834 77.0655 10.1157 76.9635 10.297C76.8729 10.467 76.7595 10.6597 76.6235 10.875C76.4989 11.079 76.3855 11.2887 76.2835 11.504C76.1929 11.708 76.1475 11.9063 76.1475 12.099C76.1475 12.2463 76.1872 12.388 76.2665 12.524C76.3459 12.6487 76.4762 12.711 76.6575 12.711C76.9295 12.711 77.3092 12.5127 77.7965 12.116C78.2952 11.708 78.7995 11.0223 79.3095 10.059L79.6325 10.382C79.3605 10.994 79.0319 11.538 78.6465 12.014C78.2725 12.4787 77.8759 12.8413 77.4565 13.102C77.0372 13.374 76.6122 13.51 76.1815 13.51C75.7169 13.51 75.3712 13.3627 75.1445 13.068C74.9179 12.7733 74.7932 12.456 74.7705 12.116C74.7705 12.0933 74.7705 12.0763 74.7705 12.065C74.7705 12.0537 74.7705 12.0423 74.7705 12.031C74.3172 12.575 73.8979 13.0057 73.5125 13.323C73.1385 13.6403 72.7362 13.799 72.3055 13.799Z" fill="url(#paint9_linear_265_33)"/>
<path d="M82.0522 13.442C81.6329 13.442 81.2929 13.3287 81.0322 13.102C80.7716 12.8867 80.6412 12.592 80.6412 12.218C80.6412 11.9007 80.7206 11.5607 80.8792 11.198C81.0379 10.8353 81.1966 10.4783 81.3552 10.127C81.5252 9.77568 81.6102 9.46401 81.6102 9.19201C81.6102 8.93134 81.5252 8.71601 81.3552 8.54601C81.1852 8.36468 80.9869 8.21734 80.7602 8.10401C80.5109 8.72734 80.2276 9.33368 79.9102 9.92301C79.6042 10.501 79.3549 10.9543 79.1622 11.283L78.9072 10.79C79.0659 10.4953 79.2756 10.076 79.5362 9.53201C79.7969 8.98801 80.0462 8.38168 80.2842 7.71301C80.1709 7.59968 80.1142 7.44668 80.1142 7.25401C80.1142 6.95934 80.2049 6.68168 80.3862 6.42101C80.5676 6.16034 80.7432 6.03001 80.9132 6.03001C81.0492 6.03001 81.1456 6.10934 81.2022 6.26801C81.2702 6.41534 81.3042 6.51734 81.3042 6.57401C81.3042 6.63068 81.2759 6.73268 81.2192 6.88001C81.1739 7.02734 81.1399 7.13501 81.1172 7.20301C81.1286 7.32768 81.2249 7.45234 81.4062 7.57701C81.5989 7.69034 81.8142 7.82634 82.0522 7.98501C82.2902 8.14368 82.4999 8.34201 82.6812 8.58001C82.8626 8.81801 82.9532 9.11834 82.9532 9.48101C82.9532 9.80968 82.8796 10.144 82.7322 10.484C82.5849 10.824 82.4376 11.1413 82.2902 11.436C82.1429 11.7307 82.0692 11.9857 82.0692 12.201C82.0692 12.3597 82.1089 12.4673 82.1882 12.524C82.2789 12.5693 82.3809 12.592 82.4942 12.592C82.7662 12.592 83.0496 12.5127 83.3442 12.354C83.6389 12.184 83.9279 11.9687 84.2112 11.708C84.4946 11.4473 84.7439 11.1753 84.9592 10.892C85.1746 10.5973 85.3389 10.331 85.4522 10.093L85.8602 10.399C85.6449 10.8863 85.3332 11.368 84.9252 11.844C84.5172 12.3087 84.0639 12.694 83.5652 13C83.0666 13.2947 82.5622 13.442 82.0522 13.442Z" fill="url(#paint10_linear_265_33)"/>
<defs>
<linearGradient id="paint0_linear_265_33" x1="3.20895" y1="-0.0714198" x2="83.4553" y2="24.283" gradientUnits="userSpaceOnUse">
<stop stop-color="#CB11AB"/>
<stop offset="1" stop-color="#AD44FF"/>
</linearGradient>
<linearGradient id="paint1_linear_265_33" x1="3.20895" y1="-0.0714198" x2="83.4553" y2="24.283" gradientUnits="userSpaceOnUse">
<stop stop-color="#CB11AB"/>
<stop offset="1" stop-color="#AD44FF"/>
</linearGradient>
<linearGradient id="paint2_linear_265_33" x1="3.20895" y1="-0.0714198" x2="83.4553" y2="24.283" gradientUnits="userSpaceOnUse">
<stop stop-color="#CB11AB"/>
<stop offset="1" stop-color="#AD44FF"/>
</linearGradient>
<linearGradient id="paint3_linear_265_33" x1="3.20895" y1="-0.0714198" x2="83.4553" y2="24.283" gradientUnits="userSpaceOnUse">
<stop stop-color="#CB11AB"/>
<stop offset="1" stop-color="#AD44FF"/>
</linearGradient>
<linearGradient id="paint4_linear_265_33" x1="3.20895" y1="-0.0714198" x2="83.4553" y2="24.283" gradientUnits="userSpaceOnUse">
<stop stop-color="#CB11AB"/>
<stop offset="1" stop-color="#AD44FF"/>
</linearGradient>
<linearGradient id="paint5_linear_265_33" x1="3.20895" y1="-0.0714198" x2="83.4553" y2="24.283" gradientUnits="userSpaceOnUse">
<stop stop-color="#CB11AB"/>
<stop offset="1" stop-color="#AD44FF"/>
</linearGradient>
<linearGradient id="paint6_linear_265_33" x1="3.20895" y1="-0.0714198" x2="83.4553" y2="24.283" gradientUnits="userSpaceOnUse">
<stop stop-color="#CB11AB"/>
<stop offset="1" stop-color="#AD44FF"/>
</linearGradient>
<linearGradient id="paint7_linear_265_33" x1="3.20895" y1="-0.0714198" x2="83.4553" y2="24.283" gradientUnits="userSpaceOnUse">
<stop stop-color="#CB11AB"/>
<stop offset="1" stop-color="#AD44FF"/>
</linearGradient>
<linearGradient id="paint8_linear_265_33" x1="3.20895" y1="-0.0714198" x2="83.4553" y2="24.283" gradientUnits="userSpaceOnUse">
<stop stop-color="#CB11AB"/>
<stop offset="1" stop-color="#AD44FF"/>
</linearGradient>
<linearGradient id="paint9_linear_265_33" x1="3.20895" y1="-0.0714198" x2="83.4553" y2="24.283" gradientUnits="userSpaceOnUse">
<stop stop-color="#CB11AB"/>
<stop offset="1" stop-color="#AD44FF"/>
</linearGradient>
<linearGradient id="paint10_linear_265_33" x1="3.20895" y1="-0.0714198" x2="83.4553" y2="24.283" gradientUnits="userSpaceOnUse">
<stop stop-color="#CB11AB"/>
<stop offset="1" stop-color="#AD44FF"/>
</linearGradient>
</defs>
</svg>
